<?xml version="1.0" encoding="utf-8"?>
<!-- Generator: Adobe Illustrator 16.0.0, SVG Export Plug-In . SVG Version: 6.00 Build 0)  -->
<!DOCTYPE svg PUBLIC "-//W3C//DTD SVG 1.1//EN" "http://www.w3.org/Graphics/SVG/1.1/DTD/svg11.dtd">
<svg version="1.1" id="Layer_1" xmlns="http://www.w3.org/2000/svg" xmlns:xlink="http://www.w3.org/1999/xlink" x="0px" y="0px"
	 width="512px" height="89.667px" viewBox="0 0 512 89.667" enable-background="new 0 0 512 89.667" xml:space="preserve">
<path fill="none" stroke="#FFFFFF" stroke-width="0.5" stroke-miterlimit="10" d="M329.588,61.234
	c52.735,16.746,86.453-36.386,86.453-36.386l0,0"/>
<path fill="none" stroke="#FFFFFF" stroke-width="0.5" stroke-miterlimit="10" d="M330.168,65.391
	c52.736,16.746,86.454-36.386,86.454-36.386"/>
<path fill="none" stroke="#FFFFFF" stroke-width="0.5" stroke-miterlimit="10" d="M330.581,70.533
	c52.736,16.746,86.454-36.386,86.454-36.386"/>
<path fill="none" stroke="#FFFFFF" stroke-width="0.5" stroke-miterlimit="10" d="M329.743,75.462
	c52.735,16.746,86.453-36.386,86.453-36.386"/>
<g>
	<path fill="#FFFFFF" d="M342.907,72.617l-0.017-0.001c0.07-0.747,0.011-1.442-0.253-2.113c-0.265-0.672-0.707-1.2-1.272-1.663
		l0.059,0.006c-0.044-0.019-0.089-0.042-0.13-0.068c-0.09-0.058-0.178-0.135-0.267-0.169c-0.054-0.021-0.096-0.05-0.126-0.084
		c-0.292-0.032-0.582-0.063-0.873-0.094c-0.182-0.02-0.326-0.033-0.327-0.282c-0.004-0.673-0.04-1.347-0.038-2.021
		c0.001-0.121,0.097-0.27,0.192-0.357c0.235-0.217,0.519-0.384,0.74-0.613c0.059-0.062,0.12-0.106,0.182-0.141
		c0.009-0.016,0.021-0.034,0.035-0.048c0.12-0.125,0.24-0.251,0.37-0.366c0.002-0.01,0.002-0.019,0.007-0.025
		c0.065-0.084,0.133-0.168,0.199-0.251c0.655-0.807,1.142-1.708,1.434-2.702c0.026-0.082,0.052-0.146,0.084-0.194
		c0.003-0.025,0.01-0.047,0.015-0.069c0.002-0.016,0.003-0.03,0.005-0.044c0.013-0.059,0.029-0.108,0.054-0.152
		c-0.011-0.097,0.018-0.2,0.082-0.271c0.05-0.442,0.104-0.841,0.132-1.242c0.071-1.029-0.083-2.026-0.502-2.974
		c-0.287-0.648-0.458-0.735-1.067-0.363c-0.4,0.245-0.774,0.578-1.069,0.944c-0.682,0.837-1.023,1.844-1.259,2.885
		c-0.049,0.218-0.073,0.328-0.139,0.38c-0.001,0.006-0.003,0.013-0.006,0.02c-0.006,0.044-0.017,0.089-0.036,0.131
		c0,0.001,0,0.002,0,0.003c-0.002,0.015-0.004,0.032-0.006,0.048c-0.004,0.04-0.012,0.078-0.021,0.116l0.005,0
		c0.007,0.94,0.014,1.815,0.02,2.69c0,0.064,0.005,0.134-0.021,0.188c-0.055,0.122-0.336,0.309-0.611,0.443
		c-0.077,0.134-0.178,0.231-0.315,0.304c-0.037,0.058-0.091,0.105-0.164,0.125c-0.036,0.038-0.082,0.069-0.138,0.084
		c0,0,0,0,0.001,0c-0.091,0.051-0.188,0.094-0.271,0.155c-1.082,0.798-2.069,1.69-2.807,2.834l0,0
		c-0.087,0.161-0.189,0.309-0.313,0.444c-0.008,0.01-0.018,0.017-0.026,0.025c-0.166,0.588-0.375,1.138-0.453,1.708
		c-0.078,0.578-0.021,1.175-0.021,1.787c0.02,0.108,0.035,0.216,0.05,0.324c0.093,0.059,0.153,0.157,0.202,0.311
		c0.652,2.071,2.496,3.68,4.855,3.637c0.088-0.002,0.177,0.039,0.265,0.06c-0.004,0.037-0.009,0.072-0.013,0.108
		c-0.003,0-0.006,0.001-0.01,0c0.014,0.023,0.022,0.047,0.03,0.073c0.082,0.097,0.067,0.244-0.008,0.356
		c0.006,0.011,0.011,0.022,0.012,0.032c0.047,0.99,0.187,1.98-0.039,2.972c-0.306,1.339-1.614,2.075-2.905,1.602
		c-0.313-0.115-0.586-0.289-0.711-0.657c0.091,0.004,0.155,0.007,0.216,0.011c0.639,0.044,1.18-0.286,1.398-0.857
		c0.243-0.641,0.02-1.414-0.527-1.813c-0.494-0.362-1.112-0.342-1.638,0.052c-0.865,0.652-1.038,1.868-0.38,2.746
		c0.43,0.571,1.016,0.908,1.701,1.074c1.751,0.429,3.226-0.586,3.422-2.369c0.049-0.435,0.04-0.875,0.037-1.314
		c-0.004-0.506-0.027-1.012-0.043-1.549l0.031,0.003c-0.004-0.006-0.008-0.013-0.011-0.02c-0.038-0.069-0.039-0.146-0.015-0.219
		c-0.002-0.031,0-0.061,0.007-0.091c-0.014-0.029-0.023-0.065-0.028-0.111c-0.024-0.269,0.188-0.243,0.34-0.282
		c1.213-0.313,2.018-1.074,2.456-2.234c0.07-0.188,0.126-0.382,0.194-0.595l0.022,0.002
		C342.878,72.785,342.887,72.699,342.907,72.617z M339.882,60.866c0.004-0.027,0.011-0.05,0.02-0.074
		c0.004-0.059,0.025-0.115,0.061-0.161c0.313-0.744,0.638-1.411,1.212-1.913c0.171-0.148,0.398-0.264,0.618-0.316
		c0.488-0.115,0.836,0.184,0.858,0.682c0.029,0.596-0.186,1.213-0.469,1.727c-0.039,0.074-0.247,0.538-0.325,0.531l0,0
		c-0.62,0.849-1.295,1.568-2.222,2.087c-0.188-0.765-0.077-1.82,0.244-2.5h0.003C339.879,60.908,339.88,60.886,339.882,60.866z
		 M339.123,75.385c-1.946,0.169-3.808-1.061-4.227-3.008c-0.023-0.109-0.032-0.224-0.053-0.374l-0.032-0.558
		c0.059-0.949,0.451-1.764,0.98-2.537c0.185-0.268,0.328-0.5,0.495-0.648c0.085-0.171,0.249-0.264,0.225-0.238l0.015,0.002
		c0.007-0.006,0.011-0.012,0.018-0.017c0.029-0.026,0.06-0.045,0.095-0.057c-0.001-0.004-0.003-0.008-0.006-0.01
		c0.81-0.579,1.618-1.157,2.428-1.734c0.031,0.02,0.063,0.042,0.095,0.061c0.011,0.673,0.021,1.347,0.032,2.048l-0.033-0.003
		c-0.01,0.03-0.022,0.059-0.041,0.087c-0.077,0.107-0.194,0.166-0.318,0.196c-1.436,0.68-2.231,1.717-2.254,3.328
		c0.01,0.02-0.002,0.051,0.005,0.074c0.027,0.103,0.066,0.212,0.095,0.313c0.035,0.042,0.019,0.069,0.034,0.112
		c0.238,0.672,0.646,1.199,1.276,1.541c0.097,0.052,0.216,0.059,0.325,0.088c0.015-0.029,0.028-0.058,0.042-0.087
		c-0.221-0.232-0.485-0.438-0.65-0.705c-0.169-0.27-0.24-0.6-0.376-0.963c-0.012-0.037,0.009-0.159,0.014-0.203
		c0.009-0.068-0.083-0.26,0.076-0.467c0.047-0.839,0.954-1.313,1.859-1.343c0.013,0.632,0.024,1.264,0.037,1.917l-0.006-0.001
		c0.027,0.071,0.029,0.152-0.003,0.225c-0.012,0.029-0.021,0.058-0.028,0.087l0.042,0.004c0.017,0.881,0.032,1.755,0.052,2.628
		C339.339,75.295,339.291,75.369,339.123,75.385z M339.994,75.256c-0.041,0.011-0.082,0.009-0.152,0.018
		c-0.021-0.907-0.041-1.798-0.063-2.73l0.031,0.004c-0.019-0.096-0.027-0.193-0.023-0.291l-0.014-0.001
		c-0.015-0.655-0.029-1.291-0.044-1.927c0.881-0.041,1.942,0.967,1.976,2.139l-0.017-0.002c0.002,0.006,0.004,0.013,0.007,0.019
		c0.021,0.044,0.027,0.092,0.021,0.14c0.027,0.086,0.035,0.178,0.018,0.269c0.009,0.023,0.017,0.049,0.018,0.069
		C341.772,73.926,340.931,75.021,339.994,75.256z"/>
	<path fill="#FFFFFF" d="M334.854,71.919"/>
	<path fill="#FFFFFF" d="M341.934,61.153c-0.025,0.069-0.074,0.128-0.15,0.163l0.073,0.026c0.045-0.061,0.089-0.121,0.131-0.183
		L341.934,61.153z"/>
</g>
<g>
	<path fill="#FFFFFF" d="M85.155,53.079V10.13h12.979l7.793,29.297l7.705-29.297h13.008v42.949h-8.057V19.271l-8.525,33.809h-8.35
		l-8.496-33.809v33.809H85.155z"/>
	<path fill="#FFFFFF" d="M155.673,53.079v-4.658c-1.133,1.66-2.622,2.969-4.468,3.926s-3.794,1.436-5.845,1.436
		c-2.09,0-3.965-0.459-5.625-1.377c-1.66-0.918-2.861-2.207-3.604-3.867c-0.743-1.66-1.113-3.955-1.113-6.885V21.966h8.232v14.297
		c0,4.375,0.151,7.056,0.454,8.042c0.303,0.986,0.854,1.768,1.655,2.344c0.801,0.576,1.816,0.864,3.047,0.864
		c1.406,0,2.666-0.385,3.779-1.157c1.113-0.771,1.875-1.729,2.285-2.871s0.615-3.94,0.615-8.394V21.966h8.232v31.113H155.673z"/>
	<path fill="#FFFFFF" d="M168.944,44.202l8.262-1.26c0.352,1.602,1.064,2.817,2.139,3.647c1.074,0.831,2.578,1.245,4.512,1.245
		c2.128,0,3.73-0.391,4.805-1.172c0.722-0.546,1.084-1.279,1.084-2.197c0-0.625-0.195-1.143-0.586-1.553
		c-0.41-0.391-1.329-0.751-2.754-1.084c-6.641-1.465-10.85-2.802-12.627-4.014c-2.461-1.68-3.691-4.014-3.691-7.002
		c0-2.695,1.064-4.961,3.193-6.797c2.128-1.835,5.43-2.754,9.902-2.754c4.258,0,7.422,0.693,9.492,2.08
		c2.07,1.387,3.496,3.438,4.277,6.152l-7.764,1.436c-0.333-1.211-0.962-2.139-1.89-2.783c-0.928-0.645-2.251-0.967-3.97-0.967
		c-2.168,0-3.721,0.303-4.658,0.908c-0.625,0.43-0.938,0.986-0.938,1.67c0,0.586,0.273,1.084,0.82,1.494
		c0.742,0.547,3.306,1.318,7.69,2.314c4.384,0.996,7.446,2.217,9.185,3.662c1.718,1.465,2.578,3.506,2.578,6.123
		c0,2.852-1.191,5.303-3.574,7.354c-2.383,2.051-5.908,3.076-10.576,3.076c-4.238,0-7.593-0.859-10.063-2.578
		C171.322,49.486,169.706,47.151,168.944,44.202z"/>
	<path fill="#FFFFFF" d="M205.214,17.747V10.13h8.232v7.617H205.214z M205.214,53.079V21.966h8.232v31.113H205.214z"/>
	<path fill="#FFFFFF" d="M249.013,31.165l-8.115,1.465c-0.273-1.621-0.894-2.842-1.86-3.662s-2.222-1.23-3.765-1.23
		c-2.051,0-3.687,0.708-4.907,2.124c-1.221,1.417-1.831,3.784-1.831,7.104c0,3.691,0.62,6.299,1.86,7.822s2.905,2.285,4.995,2.285
		c1.563,0,2.842-0.444,3.838-1.333c0.996-0.889,1.699-2.417,2.109-4.585l8.086,1.377c-0.84,3.711-2.451,6.514-4.834,8.408
		c-2.383,1.895-5.576,2.842-9.58,2.842c-4.551,0-8.179-1.436-10.884-4.307c-2.706-2.871-4.058-6.845-4.058-11.924
		c0-5.137,1.357-9.136,4.072-11.997c2.715-2.861,6.387-4.292,11.016-4.292c3.789,0,6.802,0.816,9.038,2.446
		C246.43,25.34,248.036,27.825,249.013,31.165z"/>
	<path fill="#FFFFFF" d="M264.979,53.079V17.396h-12.744V10.13h34.131v7.266h-12.715v35.684H264.979z"/>
	<path fill="#FFFFFF" d="M296.474,53.079h-8.232V21.966h7.646v4.424c1.309-2.09,2.485-3.467,3.53-4.131
		c1.045-0.664,2.231-0.996,3.56-0.996c1.875,0,3.682,0.518,5.42,1.553l-2.549,7.178c-1.387-0.898-2.676-1.348-3.867-1.348
		c-1.152,0-2.129,0.318-2.93,0.952c-0.801,0.635-1.431,1.783-1.89,3.442c-0.459,1.66-0.688,5.137-0.688,10.43V53.079z"/>
	<path fill="#FFFFFF" d="M318.095,31.458l-7.471-1.348c0.84-3.007,2.285-5.234,4.336-6.68c2.051-1.445,5.098-2.168,9.141-2.168
		c3.672,0,6.406,0.435,8.203,1.304c1.797,0.869,3.062,1.973,3.794,3.311c0.732,1.338,1.099,3.794,1.099,7.368l-0.088,9.609
		c0,2.735,0.132,4.751,0.396,6.05c0.264,1.299,0.757,2.691,1.479,4.175h-8.145c-0.215-0.546-0.479-1.357-0.791-2.432
		c-0.137-0.488-0.234-0.81-0.293-0.967c-1.406,1.367-2.91,2.393-4.512,3.076s-3.311,1.025-5.127,1.025
		c-3.203,0-5.728-0.869-7.573-2.607c-1.846-1.738-2.769-3.936-2.769-6.592c0-1.758,0.42-3.325,1.26-4.702s2.017-2.432,3.53-3.164
		s3.696-1.372,6.548-1.919c3.848-0.722,6.514-1.396,7.998-2.021v-0.82c0-1.582-0.391-2.71-1.172-3.384s-2.256-1.011-4.424-1.011
		c-1.465,0-2.607,0.289-3.428,0.864C319.267,29.002,318.603,30.013,318.095,31.458z M329.11,38.138
		c-1.055,0.352-2.725,0.772-5.01,1.26c-2.285,0.488-3.779,0.967-4.482,1.436c-1.074,0.762-1.611,1.729-1.611,2.9
		c0,1.153,0.43,2.149,1.289,2.988c0.859,0.84,1.953,1.26,3.281,1.26c1.484,0,2.9-0.488,4.248-1.465
		c0.996-0.742,1.65-1.65,1.963-2.725c0.215-0.703,0.322-2.041,0.322-4.014V38.138z"/>
	<path fill="#FFFFFF" d="M372.44,31.165l-8.115,1.465c-0.273-1.621-0.894-2.842-1.86-3.662s-2.222-1.23-3.765-1.23
		c-2.051,0-3.687,0.708-4.907,2.124c-1.221,1.417-1.831,3.784-1.831,7.104c0,3.691,0.62,6.299,1.86,7.822s2.905,2.285,4.995,2.285
		c1.563,0,2.842-0.444,3.838-1.333c0.996-0.889,1.699-2.417,2.109-4.585l8.086,1.377c-0.84,3.711-2.451,6.514-4.834,8.408
		c-2.383,1.895-5.576,2.842-9.58,2.842c-4.551,0-8.179-1.436-10.884-4.307s-4.058-6.845-4.058-11.924
		c0-5.137,1.357-9.136,4.072-11.997c2.715-2.861,6.387-4.292,11.016-4.292c3.789,0,6.802,0.816,9.038,2.446
		C369.857,25.34,371.464,27.825,372.44,31.165z"/>
	<path fill="#FFFFFF" d="M378.388,53.079V10.13h8.232v22.793l9.639-10.957h10.137l-10.635,11.367l11.396,19.746h-8.877
		l-7.822-13.975l-3.838,4.014v9.961H378.388z"/>
	<path fill="#FFFFFF" d="M419.931,53.079h-8.232V21.966h7.646v4.424c1.309-2.09,2.485-3.467,3.53-4.131
		c1.045-0.664,2.231-0.996,3.56-0.996c1.875,0,3.682,0.518,5.42,1.553l-2.549,7.178c-1.387-0.898-2.676-1.348-3.867-1.348
		c-1.152,0-2.129,0.318-2.93,0.952c-0.801,0.635-1.431,1.783-1.89,3.442c-0.459,1.66-0.688,5.137-0.688,10.43V53.079z"/>
</g>
</svg>
